<?xml version="1.0" standalone="no"?>
<!DOCTYPE svg PUBLIC "-//W3C//DTD SVG 20010904//EN"
 "http://www.w3.org/TR/2001/REC-SVG-20010904/DTD/svg10.dtd">
<svg version="1.0" xmlns="http://www.w3.org/2000/svg"
 width="36.000000pt" height="29.000000pt" viewBox="0 0 36.000000 29.000000"
 preserveAspectRatio="xMidYMid meet">
<metadata>
Created by potrace 1.16, written by Peter Selinger 2001-2019
</metadata>
<g transform="translate(0.000000,29.000000) scale(0.004500,-0.004833)"
fill="#000000" stroke="none">
<path d="M2753 3930 c-119 -68 -218 -209 -242 -344 -17 -95 -14 -1103 3 -1187
41 -193 192 -344 385 -385 50 -10 159 -14 441 -14 l375 -1 140 -244 c77 -135
142 -245 145 -245 3 0 68 110 145 245 l140 244 375 1 c282 0 391 4 441 14 193
41 344 192 385 385 17 84 20 1092 3 1187 -24 135 -123 276 -242 344 l-52 30
-1195 0 -1195 0 -52 -30z m681 -442 c55 -16 138 -99 154 -154 38 -130 -16
-256 -132 -310 -102 -48 -224 -21 -297 65 -57 65 -74 154 -47 245 15 51 99
137 148 153 48 15 124 15 174 1z m1300 0 c55 -16 138 -99 154 -154 38 -130
-16 -256 -132 -310 -102 -48 -224 -21 -297 65 -57 65 -74 154 -47 245 15 51
99 137 148 153 48 15 124 15 174 1z m-968 -785 c22 -120 113 -197 234 -197
120 0 212 77 234 197 l7 37 74 0 75 0 0 -33 c0 -54 -27 -129 -67 -187 -158
-225 -488 -225 -646 0 -40 58 -67 133 -67 187 l0 33 75 0 74 0 7 -37z"/>
</g>
</svg>
